# xmcd CD database file
#
# Track frame offsets:
#	150
#	27285
#	54180
#	87370
#	112527
#	135215
#	154909
#	178192
#	205215
#	224509
#	246965
#	269460
#	287452
#	314042
#
# Disc length: 4425 seconds
#
# Revision: 4
# Processed by: cddbd v1.5PL3 Copyright (c) Steve Scherf et al.
# Submitted via: CDex 1.51
#
DISCID=c411470e
DTITLE=Kenny G - The Moment
DYEAR=1996
DGENRE=Jazz
TTITLE0=The Moment
TTITLE1=Passages
TTITLE2=Havana
TTITLE3=Always
TTITLE4=That Somebody Was You (with Toni Braxton)
TTITLE5=The Champion's Theme
TTITLE6=Eastside Jam
TTITLE7=Moonlight
TTITLE8=Gettin' On The Step
TTITLE9=Everytime I Close My Eyes (with Babyface)
TTITLE10=Northern Lights
TTITLE11=Innocence
TTITLE12=Remember
TTITLE13=Havana (AC MIX)
EXTD=YEAR: 1996
EXTT0=
EXTT1=
EXTT2=
EXTT3=
EXTT4=
EXTT5=
EXTT6=
EXTT7=
EXTT8=
EXTT9=
EXTT10=
EXTT11=
EXTT12=
EXTT13=
PLAYORDER=
